<svg width="35" height="35" viewBox="0 0 35 35" fill="none" xmlns="http://www.w3.org/2000/svg">
<g clip-path="url(#clip0_41_7)">
<path d="M17.5 35C27.165 35 35 27.165 35 17.5C35 7.83502 27.165 0 17.5 0C7.83502 0 0 7.83502 0 17.5C0 27.165 7.83502 35 17.5 35Z" fill="#F7931A"/>
<path d="M25.3629 15.3344C25.7064 13.0419 23.9597 11.8092 21.5731 10.9867L22.3475 7.88047L20.4575 7.41016L19.7028 10.4344C19.2062 10.3097 18.6965 10.1937 18.1879 10.0778L18.9481 7.03391L17.0581 6.5625L16.2837 9.66766C15.8725 9.57359 15.4678 9.48172 15.0762 9.38328L15.0784 9.37344L12.4709 8.72266L11.9678 10.7417C11.9678 10.7417 13.3711 11.0633 13.3415 11.083C14.1072 11.2744 14.245 11.7808 14.222 12.1833L13.3404 15.7216C13.3929 15.7347 13.4608 15.7544 13.5373 15.7839L13.3372 15.7347L12.1012 20.6916C12.0072 20.9234 11.7698 21.2723 11.2339 21.14C11.2536 21.1673 9.86013 20.7977 9.86013 20.7977L8.92169 22.9611L11.3826 23.5747C11.8398 23.6895 12.2883 23.8098 12.729 23.9225L11.947 27.0637L13.8359 27.5341L14.6103 24.4278C15.1265 24.5667 15.6275 24.6958 16.1175 24.8183L15.3453 27.9114L17.2353 28.3817L18.0173 25.247C21.2417 25.8573 23.6654 25.6112 24.6859 22.6953C25.5084 20.3481 24.6454 18.993 22.949 18.1103C24.185 17.8259 25.1147 17.0133 25.3629 15.3344ZM21.0426 21.3916C20.4597 23.7398 16.5058 22.47 15.2239 22.1517L16.2629 17.99C17.5448 18.3105 21.654 18.9438 21.0426 21.3916ZM21.6278 15.3005C21.0951 17.4366 17.8051 16.3505 16.7387 16.0847L17.6793 12.3112C18.7458 12.577 22.1834 13.0725 21.6278 15.3005Z" fill="white"/>
</g>
<defs>
<clipPath id="clip0_41_7">
<rect width="35" height="35" fill="white"/>
</clipPath>
</defs>
</svg>
