<svg width="35" height="35" viewBox="0 0 35 35" fill="none" xmlns="http://www.w3.org/2000/svg">
<g clip-path="url(#clip0_41_12)">
<path d="M17.5 35C27.165 35 35 27.165 35 17.5C35 7.83502 27.165 0 17.5 0C7.83502 0 0 7.83502 0 17.5C0 27.165 7.83502 35 17.5 35Z" fill="#627EEA"/>
<path d="M18.0447 4.375V14.0766L26.2446 17.7406L18.0447 4.375Z" fill="white" fill-opacity="0.602"/>
<path d="M18.0447 4.375L9.84375 17.7406L18.0447 14.0766V4.375Z" fill="white"/>
<path d="M18.0447 24.0277V30.6197L26.2501 19.2677L18.0447 24.0277Z" fill="white" fill-opacity="0.602"/>
<path d="M18.0447 30.6197V24.0266L9.84375 19.2677L18.0447 30.6197Z" fill="white"/>
<path d="M18.0447 22.5018L26.2446 17.7407L18.0447 14.0789V22.5018Z" fill="white" fill-opacity="0.2"/>
<path d="M9.84375 17.7407L18.0447 22.5018V14.0789L9.84375 17.7407Z" fill="white" fill-opacity="0.602"/>
</g>
<defs>
<clipPath id="clip0_41_12">
<rect width="35" height="35" fill="white"/>
</clipPath>
</defs>
</svg>
