<svg width="35" height="35" viewBox="0 0 35 35" fill="none" xmlns="http://www.w3.org/2000/svg">
<circle cx="17.5" cy="17.5" r="17.5" fill="#7950DD"/>
<path d="M23.4409 13.5288C23.0104 13.2699 22.4508 13.2699 21.9773 13.5288L18.6193 15.5144L16.3376 16.8093L12.9797 18.7949C12.5492 19.0539 11.9895 19.0539 11.516 18.7949L8.84686 17.241C8.41636 16.982 8.115 16.5072 8.115 15.9892V12.9245C8.115 12.4066 8.3733 11.9318 8.84686 11.6728L11.4729 10.162C11.9034 9.90306 12.4631 9.90306 12.9367 10.162L15.5627 11.6728C15.9932 11.9318 16.2946 12.4066 16.2946 12.9245V14.9101L18.5762 13.572V11.5865C18.5762 11.0685 18.318 10.5937 17.8444 10.3347L12.9797 7.48586C12.5492 7.22688 11.9895 7.22688 11.516 7.48586L6.56519 10.3347C6.09163 10.5937 5.83333 11.0685 5.83333 11.5865V17.3273C5.83333 17.8452 6.09163 18.3201 6.56519 18.579L11.516 21.4279C11.9465 21.6869 12.5062 21.6869 12.9797 21.4279L16.3376 19.4855L18.6193 18.1474L21.9773 16.205C22.4077 15.9461 22.9674 15.9461 23.4409 16.205L26.067 17.7158C26.4975 17.9748 26.7989 18.4496 26.7989 18.9675V22.0322C26.7989 22.5501 26.5406 23.025 26.067 23.2839L23.4409 24.8379C23.0104 25.0969 22.4508 25.0969 21.9773 24.8379L19.3512 23.3271C18.9206 23.0681 18.6193 22.5933 18.6193 22.0753V20.0898L16.3376 21.4279V23.4134C16.3376 23.9314 16.5959 24.4062 17.0695 24.6652L22.0203 27.5141C22.4508 27.773 23.0104 27.773 23.484 27.5141L28.4348 24.6652C28.8653 24.4062 29.1667 23.9314 29.1667 23.4134V17.6726C29.1667 17.1547 28.9083 16.6798 28.4348 16.4209L23.4409 13.5288Z" fill="white"/>
</svg>
