<svg width="35" height="35" viewBox="0 0 35 35" fill="none" xmlns="http://www.w3.org/2000/svg">
<g clip-path="url(#clip0_41_28)">
<path d="M17.5 35C27.165 35 35 27.165 35 17.5C35 7.83502 27.165 0 17.5 0C7.83502 0 0 7.83502 0 17.5C0 27.165 7.83502 35 17.5 35Z" fill="#FF007A"/>
<path d="M13.4105 6.30738C13.0988 6.25925 13.0857 6.25269 13.2322 6.23082C13.5133 6.18707 14.1783 6.24722 14.6366 6.3555C15.7052 6.61035 16.6775 7.26113 17.7166 8.41722L17.9922 8.72347L18.386 8.66113C20.0485 8.39316 21.7405 8.60644 23.1547 9.25941C23.5441 9.43879 24.1577 9.79644 24.2343 9.88941C24.2594 9.91785 24.3043 10.1071 24.3338 10.3083C24.4388 11.005 24.3863 11.5388 24.1741 11.938C24.0582 12.1546 24.0516 12.2224 24.1293 12.4083C24.1661 12.4851 24.2238 12.55 24.2957 12.5957C24.3676 12.6413 24.4509 12.6658 24.5361 12.6664C24.8883 12.6664 25.2668 12.0977 25.4418 11.3069L25.5118 10.993L25.6496 11.1494C26.4064 12.0069 27.0003 13.1761 27.1021 14.0074L27.1294 14.225L27.0014 14.0282C26.7827 13.6891 26.5639 13.4572 26.2818 13.2702C25.7743 12.9344 25.2372 12.8207 23.8153 12.7452C22.5313 12.6774 21.8039 12.568 21.0843 12.3328C19.8582 11.9336 19.2402 11.401 17.7833 9.49019C17.1369 8.64144 16.7366 8.17222 16.3396 7.79488C15.435 6.93519 14.5469 6.48457 13.4105 6.30738Z" fill="white"/>
<path d="M24.524 8.20275C24.5568 7.634 24.6334 7.25884 24.7887 6.9165C24.85 6.78087 24.9079 6.66931 24.9167 6.66931C24.9069 6.74609 24.8867 6.82117 24.8565 6.89244C24.7439 7.22494 24.7253 7.67994 24.8029 8.20822C24.9014 8.87978 24.9582 8.97603 25.667 9.70119C26.0006 10.0413 26.3878 10.4701 26.5278 10.6549L26.7826 10.9896L26.5278 10.7501C26.2161 10.4581 25.4986 9.88603 25.34 9.80509C25.2339 9.75041 25.2175 9.7515 25.1518 9.81603C25.0917 9.87728 25.0786 9.96697 25.0709 10.3946C25.0578 11.0596 24.967 11.4884 24.7471 11.9149C24.629 12.1446 24.6104 12.0965 24.7176 11.8351C24.7975 11.6404 24.8051 11.5551 24.8051 10.9109C24.8051 9.61587 24.6509 9.30525 23.7486 8.7715C23.477 8.61395 23.1982 8.46941 22.9129 8.33837C22.772 8.28184 22.6353 8.21532 22.5039 8.13931C22.529 8.11416 23.4084 8.37009 23.7617 8.50681C24.2889 8.70916 24.3753 8.73541 24.4398 8.71025C24.4825 8.69384 24.5032 8.56916 24.524 8.20275ZM14.0164 10.4176C13.3831 9.54587 12.9915 8.20822 13.0757 7.20853L13.102 6.899L13.2464 6.92525C13.5176 6.97447 13.9846 7.14837 14.2034 7.28181C14.8028 7.64603 15.0631 8.12619 15.3267 9.35775C15.4043 9.71869 15.5061 10.1267 15.5531 10.2656C15.6275 10.4876 15.9118 11.0071 16.1437 11.3451C16.31 11.5879 16.1984 11.7027 15.8309 11.6699C15.2687 11.6185 14.5075 11.0935 14.0164 10.4176ZM23.7562 16.909C20.7954 15.7168 19.7531 14.6821 19.7531 12.9365C19.7531 12.6795 19.7618 12.4695 19.7717 12.4695C19.7826 12.4695 19.8975 12.5537 20.0265 12.6576C20.627 13.1388 21.2996 13.3445 23.1601 13.6157C24.255 13.7765 24.8718 13.9056 25.4406 14.0937C27.2475 14.6931 28.3653 15.9093 28.6321 17.5652C28.7087 18.0465 28.6639 18.9488 28.5381 19.4246C28.4396 19.8009 28.1367 20.4779 28.0568 20.5042C28.035 20.5107 28.0131 20.4265 28.0065 20.3095C27.9759 19.6882 27.662 19.0823 27.1337 18.6284C26.5332 18.1132 25.7271 17.702 23.7551 16.909H23.7562ZM21.6781 17.4034C21.6431 17.1921 21.5953 16.9832 21.5348 16.7778L21.4582 16.5524L21.5993 16.7099C21.7929 16.9287 21.9471 17.2065 22.0762 17.5784C22.1757 17.8617 22.1867 17.9459 22.1856 18.4063C22.1856 18.8592 22.1736 18.9532 22.0817 19.2092C21.9539 19.5844 21.74 19.9246 21.4571 20.2023C20.9157 20.7535 20.2212 21.0576 19.2171 21.1845C19.0421 21.2063 18.5346 21.2435 18.0873 21.2665C16.9607 21.3256 16.2203 21.4459 15.5542 21.6799C15.4941 21.7069 15.4296 21.7224 15.3639 21.7259C15.3376 21.6985 15.7904 21.4284 16.1656 21.2479C16.6939 20.9931 17.2189 20.8542 18.3968 20.6584C18.9787 20.561 19.5803 20.444 19.7323 20.397C21.1739 19.9551 21.9143 18.8154 21.677 17.4034H21.6781Z" fill="white"/>
<path d="M23.0343 19.8141C22.6406 18.9686 22.5509 18.1516 22.7664 17.3903C22.7893 17.3094 22.8265 17.2427 22.8484 17.2427C22.9224 17.2695 22.9921 17.3071 23.0551 17.3542C23.2367 17.4767 23.5998 17.6824 24.5678 18.2096C25.7764 18.8691 26.4654 19.3799 26.9347 19.9617C27.3448 20.4725 27.5986 21.0544 27.7211 21.7631C27.79 22.1646 27.7495 23.1303 27.6467 23.535C27.3218 24.8103 26.5661 25.8122 25.4898 26.3963C25.3882 26.455 25.283 26.5073 25.1748 26.5527C25.1595 26.5527 25.2164 26.4072 25.3028 26.2278C25.6637 25.471 25.7064 24.7338 25.4318 23.9135C25.2645 23.4114 24.9222 22.7978 24.232 21.7631C23.4292 20.56 23.2323 20.2385 23.0343 19.8141ZM11.9142 24.3761C13.0134 23.4486 14.3795 22.7902 15.6253 22.5878C16.1612 22.5003 17.0559 22.5353 17.5525 22.6622C18.3487 22.8656 19.0618 23.3228 19.4326 23.8664C19.7936 24.398 19.95 24.8617 20.1108 25.8921C20.1764 26.2989 20.2453 26.7069 20.2661 26.7999C20.3864 27.3336 20.6237 27.7613 20.9168 27.9756C21.3817 28.3158 22.1834 28.3366 22.9709 28.0303C23.0532 27.9926 23.1399 27.9654 23.229 27.9494C23.2575 27.9778 22.8615 28.2436 22.5815 28.3836C22.2511 28.5604 21.8811 28.65 21.5064 28.6439C20.7845 28.6439 20.1851 28.2775 19.6853 27.5283C19.5868 27.3806 19.3659 26.9399 19.1931 26.5472C18.6659 25.3441 18.4056 24.9766 17.7931 24.5752C17.2583 24.2252 16.5703 24.1628 16.0529 24.4166C15.3726 24.7502 15.1834 25.6197 15.6701 26.1699C15.8637 26.3886 16.2247 26.5778 16.52 26.6139C16.6488 26.631 16.7798 26.6202 16.9041 26.5823C17.0284 26.5444 17.1431 26.4802 17.2405 26.3942C17.3378 26.3081 17.4156 26.2021 17.4685 26.0834C17.5213 25.9647 17.5481 25.8361 17.547 25.7061C17.547 25.343 17.407 25.1374 17.057 24.9788C16.579 24.7633 16.065 25.0149 16.0672 25.4644C16.0683 25.6558 16.1514 25.7761 16.3439 25.8636C16.4675 25.9183 16.4697 25.9238 16.369 25.903C15.9304 25.8111 15.8276 25.2828 16.1809 24.9317C16.6042 24.5096 17.4803 24.6955 17.7811 25.2708C17.9079 25.5125 17.9222 25.9949 17.8117 26.2858C17.5656 26.9366 16.8459 27.2778 16.1164 27.0919C15.6198 26.965 15.4175 26.8283 14.8192 26.2114C13.779 25.1396 13.3754 24.9317 11.8748 24.6977L11.5872 24.6528L11.9153 24.3761H11.9142Z" fill="white"/>
<path fill-rule="evenodd" clip-rule="evenodd" d="M6.77686 3.66363L6.88186 3.7916C10.9375 8.75722 13.0331 11.3341 13.1665 11.5178C13.3853 11.8219 13.3033 12.0943 12.927 12.3086C12.7181 12.4278 12.2872 12.5482 12.0728 12.5482C11.8289 12.5482 11.5544 12.4311 11.3542 12.2419C11.2131 12.1074 10.6433 11.2564 9.32748 9.21441C8.71132 8.24928 8.08713 7.2893 7.45498 6.33457C7.40139 6.28425 7.40248 6.28535 9.22467 9.54582C10.3687 11.5933 10.7559 12.3163 10.7559 12.4136C10.7559 12.6105 10.7012 12.7133 10.4584 12.9846C10.0537 13.4363 9.87326 13.9438 9.74201 14.9938C9.59545 16.1718 9.1842 17.003 8.04232 18.426C7.37514 19.2594 7.26576 19.4125 7.09623 19.7483C6.88404 20.1705 6.82607 20.4078 6.80201 20.9416C6.77686 21.506 6.82607 21.8713 6.99889 22.4105C7.14982 22.883 7.30732 23.1958 7.70982 23.8193C8.05764 24.3585 8.25779 24.7588 8.25779 24.9152C8.25779 25.0399 8.28185 25.0399 8.82107 24.9185C10.1106 24.6275 11.1573 24.1146 11.7469 23.4868C12.1111 23.0985 12.1964 22.8841 12.1997 22.3514C12.2008 22.0036 12.1887 21.9303 12.0947 21.7302C11.9415 21.4043 11.6626 21.133 11.0479 20.713C10.2419 20.1618 9.89842 19.7177 9.80326 19.1085C9.72451 18.6086 9.81529 18.2553 10.2615 17.3213C10.722 16.3544 10.8369 15.9432 10.9145 14.9686C10.9637 14.3386 11.0326 14.0903 11.2142 13.8913C11.4023 13.6835 11.5729 13.6124 12.04 13.5489C12.8012 13.445 13.2858 13.2482 13.6839 12.8818C14.0295 12.5624 14.1739 12.255 14.1958 11.7935L14.2133 11.4435L14.0197 11.2182C13.7419 10.8944 11.4439 8.3591 7.12467 3.61003L7.00873 3.48425L6.77686 3.66472V3.66363ZM8.65154 21.5814C8.72785 21.4463 8.75064 21.2875 8.71539 21.1364C8.68015 20.9853 8.58944 20.8529 8.46123 20.7655C8.21186 20.5993 7.82357 20.678 7.82357 20.8946C7.82357 20.9602 7.85967 21.0083 7.9417 21.051C8.08061 21.1221 8.09045 21.203 7.98217 21.366C7.8717 21.5322 7.88045 21.6788 8.00732 21.7783C8.21076 21.938 8.49951 21.8494 8.65264 21.5814H8.65154ZM14.6934 13.7327C14.3358 13.8421 13.989 14.2216 13.8808 14.6186C13.8151 14.8603 13.8523 15.2858 13.9508 15.4171C14.1094 15.6293 14.2636 15.685 14.6792 15.6818C15.4929 15.6763 16.1995 15.3274 16.2826 14.891C16.3504 14.5333 16.0387 14.0378 15.6111 13.8191C15.3901 13.7075 14.9209 13.6627 14.6934 13.7327ZM15.645 14.4764C15.7708 14.2982 15.715 14.1046 15.5028 13.9755C15.0959 13.7272 14.4812 13.9318 14.4812 14.3168C14.4812 14.5071 14.8017 14.716 15.0948 14.716C15.2917 14.716 15.5586 14.5989 15.645 14.4764Z" fill="white"/>
</g>
<defs>
<clipPath id="clip0_41_28">
<rect width="35" height="35" fill="white"/>
</clipPath>
</defs>
</svg>
